<?xml version="1.0" encoding="UTF-8"?>
<svg id="Layer_1" data-name="Layer 1" xmlns="http://www.w3.org/2000/svg" viewBox="0 0 223.81 110.4">
  <defs>
    <style>
      .cls-1 {
        fill: #231f20;
        stroke-width: .67px;
      }

      .cls-1, .cls-2, .cls-3, .cls-4, .cls-5, .cls-6 {
        stroke-miterlimit: 10;
      }

      .cls-1, .cls-4, .cls-5 {
        stroke: #fff;
      }

      .cls-2, .cls-3 {
        stroke-width: 2.04px;
      }

      .cls-2, .cls-3, .cls-6 {
        stroke: #231f20;
      }

      .cls-3, .cls-4 {
        fill: #020202;
      }

      .cls-4, .cls-5 {
        stroke-width: 2.14px;
      }

      .cls-7, .cls-6 {
        fill: #fff;
      }

      .cls-6 {
        stroke-width: .26px;
      }
    </style>
  </defs>
  <g>
    <path class="cls-5" d="M101.5,1.07c-12.09.05-21.65,9.36-21.41,21.39s10.35,20.8,22.42,20.8,21.67-6.48,20.52-18.49c-1.27-13.34-8.52-23.01-21.53-23.69ZM106.51,41.52c-12.14-.31-22.5-8.71-22.59-19.55S92.58,2.11,103.41,2.77s18.02,9.3,18.02,20.14-4.08,18.88-14.92,18.61Z"/>
    <path class="cls-2" d="M100.99,1.18c-11.49,0-20.8,9.3-20.8,20.76,0,6.68,3.14,12.62,8.03,16.43,3.52,2.74,7.95,4.37,12.77,4.37,11.46,0,20.76-9.3,20.76-20.8,0-7.13-3.6-13.42-9.08-17.16-3.33-2.27-7.35-3.6-11.68-3.6ZM102.53,40.04c-10.33,0-18.72-8.39-18.72-18.72S92.2,2.64,102.53,2.64s18.68,8.36,18.68,18.68-8.36,18.72-18.68,18.72Z"/>
    <path class="cls-4" d="M94.54,59.37V11.75s5.5,9.11,14.9,9.34c8.54.21,14.87-9.34,14.87-9.34v47.62h-1.38c-3.53-3.29-8.24-5.33-13.49-5.33s-10,2.03-13.52,5.33h-1.38Z"/>
    <path class="cls-3" d="M94.54,59.37l.19-47.1s5.75,8.72,14.7,8.94c8.14.2,14.74-8.94,14.74-8.94l.08,47.1h-1.31c-3.36-3.14-8.51-5.49-13.51-5.49s-10.21,2.35-13.57,5.49h-1.31Z"/>
    <polygon class="cls-6" points="111.77 33.09 107.9 34.49 111.05 29.04 111.77 33.09"/>
    <path class="cls-7" d="M111.98,33.52c3.1-1.03,6.27-1.72,9.51-2.08-3.09,1.03-6.27,1.72-9.51,2.08h0Z"/>
    <path class="cls-7" d="M98.51,35.8c3.1-1.03,6.27-1.72,9.51-2.08-3.09,1.03-6.27,1.72-9.51,2.08h0Z"/>
    <path class="cls-7" d="M98.78,33.78c3.1-1.03,6.27-1.72,9.51-2.08-3.09,1.03-6.27,1.72-9.51,2.08h0Z"/>
    <path class="cls-7" d="M112.25,31.93c3.1-1.03,6.27-1.72,9.51-2.08-3.09,1.03-6.27,1.72-9.51,2.08h0Z"/>
    <path class="cls-7" d="M112.26,30.49c2.85-1.58,5.84-2.86,8.96-3.81-2.85,1.59-5.84,2.86-8.96,3.81h0Z"/>
    <path class="cls-7" d="M98.86,29.24c3.26.14,6.47.61,9.63,1.42-3.26-.13-6.47-.61-9.63-1.42h0Z"/>
  </g>
  <g id="name_on_black" data-name="name on black">
    <path class="cls-1" d="M.34,91.8c0-.17.09-.29.25-.35,2.76-1.1,5.39-3.51,6.93-6.27.23-.33.36-.71.54-1.07s.35-.72.47-1.1c.51-1.44.32-.81.68-2.29.21-.77.24-1.58.36-2.36.06-.8.03-1.6.05-2.39,0-.2.16-.36.36-.36.18,0,.33.11.36.29h0c.32,2.43.7,4.87,1.21,7.26.54,2.38,1.11,4.79,2.2,6.97.29.52.62,1.06,1.1,1.37.12.07.24.14.37.14.04.02.09.02.13.02.37,0,.69-.26.93-.54.77-.9,1.18-2.09,1.62-3.23.89-2.29,1.73-4.6,2.57-6.91.43-1.15.86-2.3,1.38-3.43.14-.28.28-.55.47-.82.12-.12.19-.28.45-.33.3.02.36.26.43.39.2.62.23,1.24.28,1.86.09,1.23.06,2.47.13,3.69s.23,2.43.5,3.62c.28,1.18.64,2.35,1.23,3.4.4.68,1.04,1.42,1.71,1.42.31,0,.62-.13.87-.36.84-.76,1.3-1.94,1.68-3.06.37-1.15.64-2.34.87-3.53.03-.17.18-.3.35-.3.23.02.37.14.37.36v.06s-.02,0-.02,0c-.26,1.22-.57,2.42-1,3.6-.43,1.15-.91,2.37-1.94,3.25-.29.27-.73.43-1.17.43-.96,0-1.69-.96-2.11-1.67-1.16-2.12-1.56-4.87-1.67-7.21-.05-1.24-.02-2.46-.1-3.69-.05-.6-.08-1.23-.25-1.78-.04-.12-.12-.22-.16-.22-.06,0-.15.09-.26.22-.17.24-.31.51-.44.78-.52,1.1-.96,2.25-1.39,3.4l-2.57,6.91c-.44,1.14-.82,2.35-1.65,3.33-.26.32-.66.63-1.12.63-.24,0-.47-.08-.66-.21-.56-.36-.89-.92-1.21-1.46-1.15-2.21-1.77-4.62-2.37-7.01-.38-1.58-.71-3.16-1.02-4.75-.15.77-.21,1.55-.46,2.29-.35,1.6-1.02,3.1-1.79,4.53-.77,1.45-1.82,2.72-2.97,3.87-1.18,1.15-2.47,2.14-4,2.9-.05.02-.1.04-.16.04-.2,0-.36-.17-.36-.36Z"/>
    <path class="cls-1" d="M30.02,79.97c-.17-.03-.29-.18-.29-.36.02-.22.15-.36.36-.36.17.02.24.04.36.04.38,0,.47-.21.49-.28.05-.16.19-.27.36-.27.19,0,.36.15.36.35,0,.35-.42.93-1.21.93-.13,0-.28,0-.43-.05ZM32,86.06c-1.14-.77-1.41-2.38-1.41-3.66v-.43c.02-.19.18-.35.37-.35.21,0,.37.17.37.36,0,.08,0,.06-.02.09-.06.35-.09.71-.09,1.07,0,.99.26,2.01,1,2.59.34.28.79.36,1.22.41h.26c.81,0,1.63-.2,2.35-.62.78-.46,1.46-1.16,1.83-1.94.05-.15.2-.23.34-.23.2,0,.37.16.37.36,0,.09-.04.21-.09.26-1.4,1.52-3.06,2.54-4.88,2.54-.62,0-1.13-.1-1.63-.45Z"/>
    <path class="cls-1" d="M39.22,85.74c-.43-.03-.86-.05-1.3-.29-.22-.1-.41-.39-.41-.69v-.03c.05-.29.14-.48.24-.68.4-.81,1.14-1.43,1.97-1.77.42-.17.85-.28,1.33-.28.13,0,.24,0,.39.05.07.02.14.04.24.09.08.05.22.19.24.39-.02.39-.21.46-.29.56-.16.12-.34.24-.5.24-.2,0-.36-.17-.36-.36,0-.12.06-.23.17-.3-1.1,0-2.23.68-2.75,1.62-.1.17-.18.36-.21.47,0,.12.03.21.17.31.28.19.7.25,1.1.3.39.04.77.06,1.16.06,2.07,0,4.27-.4,6.25-.8,1.63-.34,3.25-.73,4.84-1.22.04-.02.08-.02.12-.02.2,0,.35.17.35.36,0,.15-.09.29-.25.34-.02,0-.03.02-.05.02-3.32.54-6.6,1.13-9.92,1.49-.69.07-1.37.13-2.06.13-.15,0-.31,0-.47,0Z"/>
    <path class="cls-1" d="M51.41,89.57c0-.62-.02-1.19-.02-1.84,0-2.31-.02-3.14.13-5.45.09-1.21.18-2.42.41-3.63.11-.61.24-1.21.47-1.81.12-.29.25-.59.47-.88.21-.27.54-.58,1.03-.62.22,0,.35.15.36.37,0,.2-.14.36-.36.36-.7.02-1.22,1.51-1.46,2.68-.41,2.04-.48,4.37-.48,6.56,0,.81.02,1.63.06,2.45.36-.98.72-1.96,1.16-2.91.36-.73.71-1.49,1.35-2.09.21-.21.54-.37.87-.37.6,0,1,.52,1.31,1.03.43.73.66,1.5,1.18,2.1.41.57,1.01,1.02,1.67,1.02.87-.06,1.44-.41,2.14-1.11.55-.55,1.04-1.19,1.44-1.86.06-.13.2-.19.32-.19.2,0,.37.17.37.36,0,.06-.02.13-.06.19,0,0-.02,0-.02.02-.49.71-1.03,1.33-1.67,1.9-.73.62-1.42,1.09-2.45,1.14-.84,0-1.65-.6-2.05-1.24-.51-.68-.77-1.49-1.16-2.16-.26-.43-.58-.88-1.04-.88-.23,0-.47.11-.66.28-.56.52-.96,1.26-1.28,1.98-.64,1.48-1.07,3.06-1.32,4.65-.02.18-.17.31-.35.31-.22-.02-.36-.15-.36-.36Z"/>
    <path class="cls-1" d="M63.67,86.71c-.3-.06-.65-.17-.88-.49-.14-.19-.2-.41-.2-.62,0-.15.02-.29.07-.42.08-.33.21-.58.36-.86.06-.09.13-.18.18-.28-.26,0-.45-.09-.45-.36,0-.21.16-.36.36-.36h.02s.04,0,.06,0c.17.04.31.04.49.07.16-.18.32-.36.49-.51.95-.8,2.15-1.26,3.38-1.29.32,0,.62,0,.96.18.1.07.25.2.25.38,0,.09-.04.18-.07.24-.12.17-.25.26-.39.35-1.32.76-2.91,1.2-4.41,1.29-.38.46-.83,1.17-.83,1.65,0,.54.74.73,1.5.77l.44.02c.43,0,.85-.04,1.29-.09,1.15-.13,2.29-.39,3.42-.67,2.26-.57,4.48-1.31,6.65-2.16.02,0,.06-.02.09-.02.13,0,.24.11.24.24,0,.11-.06.19-.17.23-2.24.7-4.49,1.33-6.75,1.92-1.6.39-3.48.83-5.21.88-.3,0-.6-.02-.91-.08ZM68.13,82.45c.14-.09.24-.17.28-.28,0-.02-.02,0-.07-.06-.14-.06-.34-.08-.54-.08h-.21c-1.1.13-2.17.62-3,1.33l-.09.09c1.26-.02,2.64-.39,3.64-1Z"/>
    <path class="cls-1" d="M77.07,87.3c-.68-1.84-.97-4-.97-6.03,0-1.3.1-2.81.51-4.09.12-.33.25-.67.47-.99.21-.31.58-.68,1.1-.68.24,0,.41.11.41.36,0,.2-.17.36-.36.36h-.09c-.34,0-.73.6-.92,1.15-.47,1.27-.62,2.94-.62,4.34,0,1.83.23,3.81.84,5.44.47,1.27,1.25,2.53,2.45,2.78.17.03.33.05.49.05,1.1,0,2.12-.75,2.84-1.62.85-1.03,1.46-2.23,1.99-3.45.51-1.2.93-2.44,1.28-3.69l-.02-1.07c0-.54.02-1.08.05-1.63.03-.53.08-1.06.21-1.6.04-.14.07-.28.15-.43.05-.08.07-.17.25-.29.06-.04.14-.06.23-.06.21,0,.32.13.36.19.23.32.28.54.34.77.04.08.03.12.03.21,0,.06,0,.11-.04.17-.32,1.28-.66,2.55-1.07,3.8v.37c.06,2.05.24,4.13.96,6.05.46,1.18,1.22,2.3,2.32,2.3.77,0,1.5-.54,2.07-1.13,1.41-1.47,2.42-3.32,3.2-5.2.07-.14.17-.24.35-.24.19,0,.36.17.36.37,0,.08,0,.11-.05.18-1.08,1.81-2.14,3.61-3.63,5.13-.66.61-1.37,1.22-2.31,1.22-.21,0-.4-.02-.6-.09-1.11-.38-1.67-1.45-2.05-2.39-.65-1.72-.91-3.54-1.03-5.35-.75,2.13-1.68,4.41-3.1,6.08-.81.96-1.84,1.76-3.1,1.76-1.68,0-2.69-1.53-3.26-3.04ZM87.34,77.3l-.02-.1c-.13.47-.19,1-.24,1.51.09-.47.19-.94.27-1.41Z"/>
    <path class="cls-1" d="M96.05,86.71c-.3-.06-.65-.17-.88-.49-.14-.19-.2-.41-.2-.62,0-.15.02-.29.07-.42.08-.33.21-.58.36-.86.06-.09.13-.18.18-.28-.26,0-.45-.09-.45-.36,0-.21.16-.36.36-.36h.02s.04,0,.06,0c.17.04.31.04.49.07.16-.18.32-.36.49-.51.95-.8,2.15-1.26,3.38-1.29.32,0,.62,0,.96.18.1.07.25.2.25.38,0,.09-.04.18-.07.24-.12.17-.25.26-.39.35-1.32.76-2.91,1.2-4.41,1.29-.38.46-.83,1.17-.83,1.65,0,.54.74.73,1.5.77l.44.02c.43,0,.85-.04,1.29-.09,1.15-.13,2.29-.39,3.42-.67,2.26-.57,4.48-1.31,6.65-2.16.02,0,.06-.02.09-.02.13,0,.24.11.24.24,0,.11-.06.19-.17.23-2.24.7-4.49,1.33-6.75,1.92-1.6.39-3.48.83-5.21.88-.3,0-.6-.02-.91-.08ZM100.51,82.45c.14-.09.24-.17.28-.28,0-.02-.02,0-.07-.06-.14-.06-.34-.08-.54-.08h-.21c-1.1.13-2.17.62-3,1.33l-.09.09c1.26-.02,2.64-.39,3.64-1Z"/>
    <path class="cls-1" d="M142.62,91.53c-.21,0-.35-.16-.35-.36.04-2.21.05-4.42.05-6.62-1.8-.06-3.6-.1-5.41-.1-2.28,0-4.32.06-6.61.23,0,1.37-.1,2.72-.43,4.07-.24,1-.81,2.3-1.94,2.5-.2.02-.39.04-.58.04-.91,0-1.78-.26-2.61-.53-1.01-.37-2.01-.84-2.84-1.53-.45-.36-.98-.96-.98-1.6,0-.51.36-.96.73-1.22.89-.67,1.96-.95,2.99-1.22,1.79-.46,3.53-.62,5.28-.77-.02-.7-.06-1.39-.1-2.08-.17-2.12-.49-4.23-.89-6.3v-.08c0-.21.13-.34.36-.36.17,0,.32.13.36.29v.02c.45,3.03.65,5.54.68,8.47,3.66-.34,7.57-.39,11.25-.39h.77v-3.29c0-.79,0-1.59.02-2.39,0-.5.02-1.08.09-1.63.02-.17,0-.27.16-.58.09-.09.2-.14.31-.14.09,0,.14.03.18.06.06.03.13.12.13.12.16.31.15.43.2.63.14.74.15.85.25,1.62v.04c0,.2-.14.36-.36.36-.14,0-.27-.08-.33-.21-.04,1.34-.05,2.69-.06,4.03,0,.46,0,.92,0,1.38,1.36,0,2.72.02,4.08.04.2,0,.36.16.36.36,0,.22-.15.37-.38.37-1.35-.07-2.7-.13-4.05-.19,0,2.1,0,4.41.06,6.62,0,.19-.16.35-.36.35h-.02ZM127.88,90.98c.97-.17,1.47-1.29,1.72-2.31.24-1.12.32-2.27.32-3.43v-.53c-1.81.14-3.44.28-5.23.73-1.02.25-2.09.53-2.91,1.15-.36.24-.66.63-.66,1.04,0,.54.47,1.08.89,1.43.81.66,1.79,1.11,2.78,1.46.81.26,1.66.5,2.5.5.19,0,.39,0,.58-.04Z"/>
    <path class="cls-1" d="M148.48,85.5c-.43-.03-.88-.12-1.29-.42-.36-.27-.56-.7-.56-1.18,0-.08,0-.16.02-.24.03-.18.19-.31.37-.31.21,0,.36.16.36.37,0,.16-.07.19-.07.39s.07.42.23.57c.35.36,1.04.47,1.61.47.6,0,1.22-.21,1.46-.82-.58-.12-1.15-.28-1.69-.53-.19-.1-.38-.21-.54-.36-.09-.09-.24-.21-.24-.41,0-.39.54-.45.84-.45.63,0,1.31.16,1.69.67.16.21.24.47.24.73v.11c.69.12,1.41.16,2.12.16,1.89,0,3.68-.32,5.59-.85.04-.02.07-.02.11-.02.21,0,.32.13.36.36,0,.17-.11.32-.3.36-1.83.33-3.34.51-5.12.51-1.02,0-1.89-.08-2.82-.25-.02.06-.03.12-.06.17-.38.75-1.26.96-1.98.96h-.32ZM150.67,83.97c0-.21-.06-.41-.18-.58-.29-.45-.9-.58-1.47-.58-.24,0-.46.04-.62.14-.04.02-.06.06-.06.09,0,.18.36.42.67.57.52.23,1.08.37,1.65.47v-.1Z"/>
    <path class="cls-1" d="M158.55,88.44v-.61c0-.93.02-1.86.04-2.79.06-2.14.15-4.6.6-6.71.16-.77.38-1.71.98-2.45.23-.25.56-.51,1-.54.21,0,.34.14.36.36,0,.21-.14.36-.36.36-.71.03-1.21,1.34-1.47,2.38-.45,1.92-.57,4.14-.57,6.22,0,.85.02,1.71.07,2.56.51-.77,1.06-1.5,1.65-2.2-.02-.05-.04-.1-.04-.15,0-.09.04-.17.1-.23.03-.02,0-.03.05-.03.32-.24.62-.49.95-.73,1.05-1.08,2.11-1.99,3.41-2.81.06-.03.08-.08.22-.08.1,0,.19.09.19.16,0,.12-.02.13-.02.13-.09.15-.15.19-.25.29-.7.66-.33.32-1.1,1l-2.74,2.42c.6,1.32,1.89,2.2,3.4,2.2.48,0,.97-.08,1.43-.21.5-.13.96-.37,1.43-.58.44-.28.92-.48,1.32-.82.39-.32.83-.62,1.2-.97l1.12-1.11c.07-.08.17-.12.26-.12.2,0,.37.17.37.36,0,.13-.05.21-.16.3-.87.62-1.7,1.28-2.61,1.83-.43.3-.92.52-1.38.78-.49.21-.97.44-1.49.56-.51.17-1.05.26-1.6.26-1.53,0-2.9-.78-3.85-2.13-.76.97-1.42,2.07-1.82,3.2-.06.14-.19.24-.34.24-.18,0-.34-.15-.36-.33Z"/>
    <path class="cls-1" d="M172,86.71c-.3-.06-.65-.17-.88-.49-.14-.19-.2-.41-.2-.62,0-.15.02-.29.07-.42.08-.33.21-.58.36-.86.06-.09.13-.18.18-.28-.26,0-.45-.09-.45-.36,0-.21.16-.36.36-.36h.02s.04,0,.06,0c.17.04.31.04.49.07.16-.18.32-.36.49-.51.95-.8,2.15-1.26,3.38-1.29.32,0,.62,0,.96.18.1.07.25.2.25.38,0,.09-.04.18-.07.24-.12.17-.25.26-.39.35-1.32.76-2.91,1.2-4.41,1.29-.38.46-.83,1.17-.83,1.65,0,.54.74.73,1.5.77l.44.02c.43,0,.85-.04,1.29-.09,1.15-.13,2.29-.39,3.42-.67,2.26-.57,4.48-1.31,6.65-2.16.02,0,.06-.02.09-.02.13,0,.24.11.24.24,0,.11-.06.19-.17.23-2.24.7-4.49,1.33-6.75,1.92-1.6.39-3.48.83-5.21.88-.3,0-.6-.02-.91-.08ZM176.46,82.45c.14-.09.24-.17.28-.28,0-.02-.02,0-.07-.06-.14-.06-.34-.08-.54-.08h-.21c-1.1.13-2.17.62-3,1.33l-.09.09c1.26-.02,2.64-.39,3.64-1Z"/>
    <path class="cls-1" d="M184.62,85.45c-.2-.34-.24-.68-.24-1.02.02-.7.06-.94.26-1.66.04-.17.19-.27.36-.27.18,0,.36.15.36.36-.02.09,0,.05-.02.15h0c-.22.49-.43,1.16-.43,1.7,0,.19.03.36.11.51.09.22.33.31.61.31.45,0,1-.22,1.43-.42.74-.36,1.45-.81,2.13-1.28.7-.47,1.28-1.05,2.05-1.49.17-.09.38-.17.63-.17.69.02.77.78.88,1.24.03.21.06.35.14.49.27.5,1.02.63,1.71.63,1.75-.04,3.46-.58,5.02-1.1.04-.02.08-.02.13-.02.21,0,.36.17.36.36,0,.15-.09.29-.24.34-1.61.57-3.25,1.01-5,1.07-.43,0-.88-.02-1.33-.15-.44-.11-.93-.37-1.18-.85-.27-.43-.16-.96-.28-1.26-.06-.23-.16-.32-.33-.32-.11,0-.24.02-.36.07-1.48.65-2.69,1.94-4.22,2.68-.38.19-.77.38-1.2.48-.13.04-.28.06-.43.06-.32,0-.73-.11-.89-.45Z"/>
    <path class="cls-1" d="M199.94,86.71c-.3-.06-.65-.17-.88-.49-.14-.19-.2-.41-.2-.62,0-.15.02-.29.07-.42.08-.33.21-.58.36-.86.06-.09.13-.18.18-.28-.26,0-.45-.09-.45-.36,0-.21.16-.36.36-.36h.02s.04,0,.06,0c.17.04.31.04.49.07.16-.18.32-.36.49-.51.95-.8,2.15-1.26,3.38-1.29.32,0,.62,0,.96.18.1.07.25.2.25.38,0,.09-.04.18-.07.24-.12.17-.25.26-.39.35-1.32.76-2.91,1.2-4.41,1.29-.38.46-.83,1.17-.83,1.65,0,.54.74.73,1.5.77l.44.02c.43,0,.85-.04,1.29-.09,1.15-.13,2.29-.39,3.42-.67,2.26-.57,4.48-1.31,6.65-2.16.02,0,.06-.02.09-.02.13,0,.24.11.24.24,0,.11-.06.19-.17.23-2.24.7-4.49,1.33-6.75,1.92-1.6.39-3.48.83-5.21.88-.3,0-.6-.02-.91-.08ZM204.41,82.45c.14-.09.24-.17.28-.28,0-.02-.02,0-.07-.06-.14-.06-.34-.08-.54-.08h-.21c-1.1.13-2.17.62-3,1.33l-.09.09c1.26-.02,2.64-.39,3.64-1Z"/>
    <path class="cls-1" d="M213.38,89.49c-1.11,0-2.5-.4-2.9-1.58-.06-.16-.08-.32-.08-.48,0-1.07.9-1.77,1.82-2.31.3-.15.61-.28.92-.41-.37-.4-.77-.73-1.17-1.17-.39-.43-.84-.92-.89-1.73.06-.82.98-1.15,1.57-1.23.51-.09.99-.1,1.48-.1h.32c.2,0,.35.17.35.36s-.16.37-.37.37c-.26-.05-.51-.06-.77-.06-.55,0-1.18.06-1.61.28-.2.13-.26.25-.28.4.02.36.39.81.76,1.19.43.47.85.85,1.33,1.41,1.53-.52,3.15-.75,4.75-.98-.11-.27-.22-.56-.22-.92.02-.33.09-.59.37-.8.36-.24.67-.26,1-.26h.17c.2,0,.36.17.36.37,0,.2-.17.36-.37.36-.03,0-.07,0-.1,0h0c-.07-.03-.17-.04-.25-.04-.3,0-.51.07-.51.31,0,.28.23.66.46,1.06.13.23.24.46.36.7.96-.41,2.23-.57,3.38-.61.12,0,.21.09.22.22,0,.11-.09.21-.21.21,0,0-.02,0-.04,0-.34-.03-.68-.06-1.03-.06-.77,0-1.55.11-2.25.4.32.64.57,1.33.58,2.08,0,.31-.05.65-.32.91-.22.19-.46.26-.7.26-.77,0-1.29-.7-1.29-1.44,0-.7.44-1.27,1.01-1.65l-.25-.42h-.84c-1.39,0-2.8.13-4.12.51.65.76,1.28,1.57,1.63,2.58.06.22.11.46.11.71,0,.09,0,.17-.02.25-.02.36-.27.66-.52.87-.57.38-1.19.43-1.77.43h-.08ZM214.94,88.69c.21-.17.3-.42.3-.69,0-.2-.04-.4-.12-.61-.39-.92-1.09-1.75-1.83-2.52-.33.13-.66.25-.98.41-.26.12-.47.3-.72.45-.52.39-.97,1.04-.97,1.65,0,.65.51,1.27,1.21,1.51.42.17.87.23,1.33.23.72-.02,1.31-.06,1.79-.43ZM219.93,87.1c.09-.1.13-.25.13-.43,0-.62-.4-1.37-.71-1.95,0-.02,0,0-.02-.02-.48.32-.86.85-.86,1.44,0,.53.35,1.16.92,1.16.21,0,.44-.08.54-.21Z"/>
  </g>
</svg>