<?xml version="1.0" encoding="UTF-8"?>
<svg xmlns="http://www.w3.org/2000/svg" viewBox="0 0 350 130">
  <defs>
    <style>
      .cls-1 {
        fill: #231f20;
        stroke-width: .73px;
      }

      .cls-1, .cls-2, .cls-3, .cls-4, .cls-5, .cls-6 {
        stroke-miterlimit: 10;
      }

      .cls-1, .cls-2, .cls-5 {
        stroke: #fff;
      }

      .cls-7, .cls-6 {
        fill: #fff;
      }

      .cls-2 {
        stroke-width: 4.37px;
      }

      .cls-3, .cls-4 {
        stroke-width: 4.17px;
      }

      .cls-3, .cls-4, .cls-6 {
        stroke: #231f20;
      }

      .cls-3, .cls-5 {
        fill: #020202;
      }

      .cls-5 {
        stroke-width: 4.37px;
      }

      .cls-6 {
        stroke-width: .49px;
      }
    </style>
  </defs>
  <g id="black">
    <g id="name_black" data-name="name black">
      <g>
        <path class="cls-7" d="M115.58,66.67c-.71,2.07-1.84,4.92-2.29,5.93-.06.13-.2.21-.34.21-.18,0-.31-.15-.37-.28-.5-1.06-1.9-5.16-2.28-6.48-.11-.4-.14-.51-.14-.57,0-.18.16-.35.35-.35.16,0,.3.1.34.25.4,1.49,1.49,4.64,2.09,6.18.66-1.58,1.78-4.47,2.29-6.14.04-.16.18-.26.34-.26.18,0,.3.13.4.43.48,1.53,1.57,4.48,2.19,6,.62-1.58,1.64-4.51,2.14-6.21.04-.15.18-.25.34-.25.17,0,.35.17.35.35,0,.04-.03.16-.07.3-.54,1.83-1.88,5.64-2.4,6.83-.06.13-.2.21-.34.21-.11,0-.25-.07-.35-.28-.47-.92-1.6-3.93-2.25-5.87Z"/>
        <path class="cls-7" d="M123.31,65.47c0-.18.14-.35.31-.35h3.96c.2,0,.35.15.35.35,0,.18-.16.35-.35.35h-3.56v2.46h2.96c.2,0,.35.16.35.35,0,.18-.16.35-.35.35h-2.96v2.99h3.59c.2,0,.35.16.35.35,0,.18-.16.35-.35.35h-3.95c-.18,0-.35-.17-.35-.35v-6.86Z"/>
        <path class="cls-7" d="M130.2,65.47c0-.2.16-.35.35-.35h1.97c.83,0,1.39.28,1.74.62.31.32.52.85.52,1.3,0,.51-.21.99-.52,1.32-.06.06-.13.13-.21.18.31.13.58.3.79.51.42.42.62.92.62,1.49,0,.51-.18,1.03-.58,1.43-.42.41-1.06.72-2.14.72h-2.19c-.2,0-.35-.16-.35-.35v-6.86ZM134.07,67.04c0-.28-.13-.59-.33-.79-.25-.26-.65-.42-1.23-.42h-1.61v2.47h1.74c.48-.03.89-.24,1.1-.45.2-.18.33-.5.33-.81ZM130.91,71.98h1.84c.82,0,1.32-.2,1.63-.52.25-.26.38-.58.38-.92,0-.37-.14-.69-.42-.98-.34-.34-.92-.55-1.54-.55h-1.88v2.97Z"/>
        <path class="cls-7" d="M141.75,72.33v-6.86c0-.2.16-.35.35-.35h2.49c1.87,0,3.56,1.54,3.56,3.78s-1.41,3.79-3.56,3.79h-2.49c-.2,0-.35-.16-.35-.35ZM142.45,71.98h2.14c1.75,0,2.86-1.39,2.86-3.08,0-1.78-1.33-3.07-2.86-3.07h-2.14v6.15Z"/>
        <path class="cls-7" d="M150.41,65.47c0-.18.14-.35.31-.35h3.96c.2,0,.35.15.35.35,0,.18-.16.35-.35.35h-3.56v2.46h2.96c.2,0,.35.16.35.35,0,.18-.16.35-.35.35h-2.96v2.99h3.59c.2,0,.35.16.35.35,0,.18-.16.35-.35.35h-3.95c-.18,0-.35-.17-.35-.35v-6.86Z"/>
        <path class="cls-7" d="M156.76,65.95c-.07-.2-.14-.41-.14-.5,0-.17.11-.35.35-.35.14,0,.3.08.34.24.48,1.53,1.99,4.85,2.74,6.35.76-1.55,2.15-4.6,2.73-6.34.06-.15.2-.24.35-.24.18,0,.34.17.34.37,0,.06-.04.21-.17.57-.59,1.6-2.32,5.39-2.94,6.59-.06.11-.18.18-.31.18-.14,0-.27-.1-.35-.27-.57-1.08-2.42-5.13-2.94-6.61Z"/>
        <path class="cls-7" d="M165.58,65.47c0-.18.14-.35.31-.35h3.96c.2,0,.35.15.35.35,0,.18-.16.35-.35.35h-3.56v2.46h2.96c.2,0,.35.16.35.35,0,.18-.16.35-.35.35h-2.96v2.99h3.59c.2,0,.35.16.35.35,0,.18-.16.35-.35.35h-3.95c-.18,0-.35-.17-.35-.35v-6.86Z"/>
        <path class="cls-7" d="M172.47,72.33v-6.86c0-.2.17-.35.35-.35.2,0,.35.15.35.35v6.51h3.48c.2,0,.35.16.35.35,0,.18-.16.35-.35.35h-3.83c-.18,0-.35-.17-.35-.35Z"/>
        <path class="cls-7" d="M181.99,72.81c-2.16,0-3.69-1.7-3.69-3.86,0-2.36,1.5-3.96,3.69-3.96,2.01,0,3.63,1.6,3.63,3.92s-1.34,3.9-3.63,3.9ZM181.99,72.1c1.87,0,2.93-1.41,2.93-3.2s-1.29-3.21-2.93-3.21c-1.8,0-2.98,1.34-2.98,3.25,0,1.74,1.22,3.15,2.98,3.15Z"/>
        <path class="cls-7" d="M187.88,65.47c0-.2.15-.35.35-.35h2.02c1.66,0,2.77,1.07,2.77,2.53,0,1.37-.92,2.55-2.77,2.55h-1.67v2.14c0,.2-.16.35-.35.35-.18,0-.35-.17-.35-.35v-6.86ZM188.59,69.49h1.67c1.35,0,2.07-.81,2.07-1.84,0-1.09-.86-1.82-2.07-1.82h-1.67v3.66Z"/>
        <path class="cls-7" d="M195.1,65.47c0-.18.14-.35.31-.35h3.96c.2,0,.35.15.35.35,0,.18-.16.35-.35.35h-3.56v2.46h2.96c.2,0,.35.16.35.35,0,.18-.16.35-.35.35h-2.96v2.99h3.59c.2,0,.35.16.35.35,0,.18-.16.35-.35.35h-3.95c-.18,0-.35-.17-.35-.35v-6.86Z"/>
        <path class="cls-7" d="M204.6,69.87h-1.9v2.46c0,.2-.16.35-.35.35-.18,0-.35-.17-.35-.35v-6.86c0-.2.15-.35.35-.35h2.08c1.65,0,2.7,1,2.7,2.37,0,1.02-.55,1.93-1.71,2.25l2.02,2.36c.06.06.09.14.09.23,0,.17-.16.35-.35.35-.1,0-.2-.04-.27-.13l-2.31-2.69ZM202.7,69.16h1.73c1.3,0,1.99-.73,1.99-1.67,0-1-.82-1.67-1.99-1.67h-1.73v3.34Z"/>
        <path class="cls-7" d="M215.64,72.8c-1.43,0-2.35-.91-2.35-2.02,0-.83.28-1.55,1.7-2.32-.51-.55-.81-1.06-.81-1.67,0-1.06.76-1.77,1.81-1.77s1.85.76,1.85,1.71c0,.79-.44,1.44-1.51,1.88l-.1.04,1.92,1.67,1.26-1.78c.07-.1.17-.16.28-.16.2,0,.35.17.35.35,0,.07-.03.14-.07.2l-1.3,1.85,1.46,1.27c.09.07.13.17.13.27,0,.18-.16.35-.35.35-.09,0-.15-.03-.23-.09l-1.44-1.24c-.91,1.09-1.66,1.44-2.6,1.44ZM215.52,68.98c-1.16.58-1.53,1.1-1.53,1.8,0,.78.72,1.32,1.64,1.32.78,0,1.37-.34,2.08-1.2l-2.19-1.91ZM216.05,67.96c.71-.3,1.09-.69,1.09-1.23,0-.58-.53-1-1.15-1s-1.1.42-1.1,1.06c0,.51.31.91.76,1.35l.4-.17Z"/>
        <path class="cls-7" d="M226.25,68.95c0-2.38,1.64-3.96,3.87-3.96.83,0,1.56.18,2.19.41.14.06.23.17.23.32,0,.18-.13.35-.35.35-.04,0-.09-.01-.13-.03-.55-.21-1.19-.35-1.94-.35-1.84,0-3.17,1.3-3.17,3.25,0,1.75,1.14,3.15,3.13,3.15.92,0,1.61-.21,2.19-.54v-2.05h-1.96c-.18,0-.35-.17-.35-.35,0-.2.17-.35.35-.35h2.16c.35,0,.51.09.51.35v2.55c0,.16-.07.28-.18.35-.69.44-1.54.75-2.72.75-2.43,0-3.83-1.71-3.83-3.86Z"/>
        <path class="cls-7" d="M238.12,69.87h-1.9v2.46c0,.2-.16.35-.35.35-.18,0-.35-.17-.35-.35v-6.86c0-.2.15-.35.35-.35h2.08c1.65,0,2.7,1,2.7,2.37,0,1.02-.55,1.93-1.71,2.25l2.02,2.36c.06.06.09.14.09.23,0,.17-.16.35-.35.35-.1,0-.2-.04-.27-.13l-2.31-2.69ZM236.23,69.16h1.73c1.3,0,1.99-.73,1.99-1.67,0-1-.82-1.67-1.99-1.67h-1.73v3.34Z"/>
        <path class="cls-7" d="M248.27,70.63h-3.99c-.27.68-.51,1.3-.69,1.81-.06.15-.21.24-.35.24-.17,0-.34-.16-.34-.37,0-.06.01-.11.14-.44.64-1.71,1.85-4.51,2.83-6.68.06-.13.2-.21.34-.21h.06c.14,0,.28.07.34.2,1.02,2.19,2.4,5.29,2.96,6.69.14.34.16.41.16.45,0,.18-.17.35-.35.35-.14,0-.27-.09-.32-.23-.2-.51-.47-1.15-.76-1.82ZM244.58,69.93h3.4c-.55-1.26-1.17-2.63-1.74-3.82-.52,1.2-1.13,2.56-1.66,3.82Z"/>
        <path class="cls-7" d="M251.81,65.47c0-.2.15-.35.35-.35h2.02c1.66,0,2.77,1.07,2.77,2.53,0,1.37-.92,2.55-2.77,2.55h-1.67v2.14c0,.2-.16.35-.35.35-.18,0-.35-.17-.35-.35v-6.86ZM252.52,69.49h1.67c1.35,0,2.07-.81,2.07-1.84,0-1.09-.86-1.82-2.07-1.82h-1.67v3.66Z"/>
        <path class="cls-7" d="M264.47,69.01h-4.74v3.32c0,.2-.16.35-.35.35-.18,0-.35-.17-.35-.35v-6.86c0-.2.17-.35.35-.35.2,0,.35.15.35.35v2.83h4.74v-2.83c0-.2.17-.35.35-.35.2,0,.35.15.35.35v6.86c0,.2-.16.35-.35.35-.18,0-.35-.17-.35-.35v-3.32Z"/>
        <path class="cls-7" d="M268.38,72.68c-.18,0-.35-.17-.35-.35v-6.86c0-.2.17-.35.35-.35.2,0,.35.15.35.35v6.86c0,.2-.16.35-.35.35Z"/>
        <path class="cls-7" d="M271.76,68.95c0,1.78,1.19,3.15,3.24,3.15.68,0,1.27-.14,1.75-.38.04-.03.1-.04.16-.04.2,0,.35.14.35.35,0,.13-.07.25-.2.31-.56.3-1.27.47-2.06.47-2.5,0-3.95-1.68-3.95-3.86,0-2.38,1.79-3.96,3.86-3.96.82,0,1.58.17,2.09.45.11.07.18.18.18.31,0,.17-.14.35-.35.35-.06,0-.11-.02-.17-.04-.42-.23-1.07-.37-1.75-.37-1.7,0-3.15,1.3-3.15,3.25Z"/>
        <path class="cls-7" d="M283.67,72.33v-6.86c0-.2.15-.35.35-.35h2.49c1.87,0,3.56,1.54,3.56,3.78s-1.41,3.79-3.56,3.79h-2.49c-.2,0-.35-.16-.35-.35ZM284.37,71.98h2.14c1.75,0,2.86-1.39,2.86-3.08,0-1.78-1.33-3.07-2.86-3.07h-2.14v6.15Z"/>
        <path class="cls-7" d="M292.33,65.47c0-.18.14-.35.31-.35h3.96c.2,0,.35.15.35.35,0,.18-.16.35-.35.35h-3.56v2.46h2.96c.2,0,.35.16.35.35,0,.18-.16.35-.35.35h-2.96v2.99h3.59c.2,0,.35.16.35.35,0,.18-.15.35-.35.35h-3.95c-.18,0-.35-.17-.35-.35v-6.86Z"/>
        <path class="cls-7" d="M299.7,66.91c0,.61.41,1.1,1.94,1.46,2.02.47,2.59,1.3,2.59,2.36s-.74,2.08-2.67,2.08c-.91,0-1.77-.21-2.56-.65-.12-.07-.18-.18-.18-.31,0-.17.14-.35.35-.35.06,0,.11.01.17.04.68.38,1.43.56,2.22.56,1.29,0,1.97-.61,1.97-1.37s-.59-1.3-2.02-1.66c-2.01-.5-2.5-1.23-2.5-2.22,0-.89.79-1.82,2.28-1.82,1.03,0,1.54.17,2.25.45.14.06.23.18.23.33,0,.18-.17.35-.35.35-.04,0-.09-.01-.32-.11-.45-.18-.93-.31-1.8-.31-.96,0-1.57.57-1.57,1.17Z"/>
        <path class="cls-7" d="M307.07,72.68c-.18,0-.35-.17-.35-.35v-6.86c0-.2.17-.35.35-.35.2,0,.35.15.35.35v6.86c0,.2-.16.35-.35.35Z"/>
        <path class="cls-7" d="M309.75,68.95c0-2.38,1.64-3.96,3.87-3.96.83,0,1.56.18,2.19.41.14.06.23.17.23.32,0,.18-.13.35-.35.35-.04,0-.09-.01-.13-.03-.55-.21-1.19-.35-1.94-.35-1.84,0-3.17,1.3-3.17,3.25,0,1.75,1.14,3.15,3.13,3.15.92,0,1.61-.21,2.19-.54v-2.05h-1.96c-.18,0-.35-.17-.35-.35,0-.2.17-.35.35-.35h2.16c.35,0,.51.09.51.35v2.55c0,.16-.07.28-.18.35-.69.44-1.54.75-2.72.75-2.43,0-3.83-1.71-3.83-3.86Z"/>
        <path class="cls-7" d="M319.73,66.41v5.92c0,.2-.16.35-.35.35-.18,0-.35-.17-.35-.35v-6.86c0-.2.17-.35.34-.35.21,0,.31.04.38.14.95,1.26,3.22,4.1,4.78,6.14v-5.93c0-.2.17-.35.35-.35.2,0,.35.15.35.35v6.86c0,.2-.16.35-.34.35-.2,0-.31-.04-.38-.14-1.3-1.74-3.51-4.5-4.78-6.14Z"/>
        <path class="cls-7" d="M328,65.47c0-.18.14-.35.31-.35h3.96c.2,0,.35.15.35.35,0,.18-.16.35-.35.35h-3.56v2.46h2.96c.2,0,.35.16.35.35,0,.18-.16.35-.35.35h-2.96v2.99h3.59c.2,0,.35.16.35.35,0,.18-.16.35-.35.35h-3.95c-.18,0-.35-.17-.35-.35v-6.86Z"/>
        <path class="cls-7" d="M337.5,69.87h-1.9v2.46c0,.2-.16.35-.35.35-.18,0-.35-.17-.35-.35v-6.86c0-.2.15-.35.35-.35h2.08c1.65,0,2.7,1,2.7,2.37,0,1.02-.55,1.93-1.71,2.25l2.02,2.36c.06.06.09.14.09.23,0,.17-.16.35-.35.35-.1,0-.2-.04-.27-.13l-2.31-2.69ZM335.6,69.16h1.73c1.3,0,1.99-.73,1.99-1.67,0-1-.82-1.67-1.99-1.67h-1.73v3.34Z"/>
      </g>
      <g id="name_on_black" data-name="name on black">
        <path class="cls-1" d="M105.16,52.79c0-.18.09-.31.27-.37,2.97-1.18,5.81-3.78,7.46-6.75.25-.36.38-.77.58-1.15s.37-.77.5-1.18c.55-1.55.35-.88.73-2.47.23-.83.26-1.7.38-2.54.06-.86.03-1.72.05-2.57,0-.21.17-.38.38-.38.2,0,.36.12.39.31h0c.34,2.62.76,5.24,1.3,7.82.59,2.56,1.19,5.16,2.36,7.5.31.56.67,1.14,1.18,1.47.13.08.26.15.4.15.04.02.09.03.14.03.4,0,.74-.28,1-.58.83-.97,1.27-2.25,1.74-3.48.96-2.47,1.86-4.96,2.77-7.44.47-1.23.93-2.47,1.49-3.69.15-.3.31-.6.5-.88.13-.13.2-.31.48-.36.32.02.39.28.47.43.21.67.25,1.34.3,2,.1,1.33.07,2.66.14,3.97s.25,2.62.54,3.9c.3,1.28.69,2.53,1.33,3.66.43.73,1.12,1.53,1.85,1.53.33,0,.66-.14.94-.39.9-.82,1.4-2.08,1.81-3.3.4-1.23.69-2.52.94-3.8.03-.19.2-.32.37-.32.25.03.4.15.4.39v.07s-.02,0-.02,0c-.28,1.31-.61,2.6-1.07,3.88-.47,1.24-.98,2.55-2.08,3.5-.31.29-.79.47-1.26.47-1.03,0-1.82-1.03-2.27-1.8-1.25-2.29-1.68-5.25-1.79-7.77-.05-1.34-.03-2.65-.11-3.97-.05-.65-.09-1.33-.27-1.91-.04-.13-.13-.24-.17-.24-.06,0-.16.1-.28.24-.18.26-.33.54-.48.84-.56,1.18-1.03,2.42-1.5,3.66l-2.77,7.44c-.48,1.22-.88,2.53-1.78,3.58-.28.34-.71.68-1.21.68-.26,0-.51-.09-.71-.22-.6-.39-.96-1-1.3-1.57-1.24-2.38-1.91-4.98-2.55-7.54-.41-1.7-.77-3.4-1.1-5.11-.16.82-.23,1.67-.49,2.47-.37,1.72-1.1,3.34-1.93,4.88-.82,1.56-1.96,2.93-3.2,4.17-1.27,1.23-2.66,2.3-4.3,3.12-.05.03-.11.04-.17.04-.21,0-.39-.19-.39-.39Z"/>
        <path class="cls-1" d="M137.12,40.05c-.19-.03-.31-.2-.31-.38.03-.24.16-.39.39-.39.18.02.26.04.39.04.41,0,.5-.22.53-.31.05-.17.2-.29.38-.29.2,0,.38.16.38.37,0,.37-.45,1-1.3,1-.14,0-.3,0-.46-.05ZM139.25,46.61c-1.22-.83-1.52-2.56-1.52-3.95v-.46c.03-.2.2-.37.4-.37.23,0,.4.18.4.39,0,.09,0,.06-.02.09-.06.37-.09.77-.09,1.16,0,1.06.28,2.16,1.08,2.79.37.3.85.38,1.32.44h.28c.88,0,1.76-.21,2.53-.67.84-.49,1.57-1.25,1.97-2.09.05-.16.21-.25.37-.25.21,0,.4.17.4.38,0,.1-.04.22-.1.28-1.51,1.64-3.3,2.74-5.26,2.74-.66,0-1.22-.11-1.75-.48Z"/>
        <path class="cls-1" d="M147.03,46.27c-.46-.03-.93-.05-1.4-.31-.24-.11-.44-.42-.44-.74v-.03c.05-.31.15-.52.26-.73.43-.87,1.22-1.54,2.12-1.91.45-.18.92-.31,1.44-.31.14,0,.26,0,.43.05.08.02.15.04.26.1.09.05.24.2.26.42-.02.42-.22.49-.31.6-.17.13-.37.26-.54.26-.21,0-.39-.18-.39-.38,0-.13.07-.25.18-.32-1.18,0-2.4.73-2.96,1.74-.11.18-.2.38-.23.51,0,.13.03.23.19.33.3.2.76.27,1.18.32.42.04.83.06,1.25.06,2.23,0,4.6-.43,6.73-.86,1.75-.37,3.5-.79,5.21-1.31.04-.02.09-.02.13-.02.21,0,.37.18.37.39,0,.16-.1.31-.27.37-.02,0-.03.02-.05.02-3.57.58-7.1,1.22-10.68,1.61-.74.08-1.47.14-2.22.14-.16,0-.33,0-.5,0Z"/>
        <path class="cls-1" d="M160.15,50.4c0-.67-.02-1.28-.02-1.98,0-2.48-.02-3.38.14-5.87.1-1.3.2-2.6.44-3.9.12-.65.26-1.3.5-1.95.13-.31.27-.64.5-.94.22-.29.59-.63,1.11-.67.24,0,.37.16.39.4,0,.21-.15.38-.38.38-.76.02-1.31,1.62-1.57,2.88-.44,2.19-.52,4.7-.52,7.06,0,.88.03,1.76.06,2.64.38-1.05.77-2.11,1.25-3.13.39-.79.77-1.61,1.45-2.25.23-.23.58-.4.94-.4.65,0,1.08.56,1.41,1.11.47.78.71,1.62,1.27,2.26.44.61,1.09,1.1,1.79,1.1.94-.07,1.55-.44,2.3-1.19.6-.6,1.12-1.28,1.55-2,.07-.14.21-.2.34-.2.21,0,.4.18.4.39,0,.07-.03.14-.06.2,0,0-.02,0-.02.02-.53.77-1.11,1.44-1.79,2.04-.79.66-1.53,1.17-2.64,1.22-.9,0-1.78-.65-2.2-1.34-.55-.73-.82-1.61-1.25-2.33-.28-.47-.63-.95-1.12-.95-.25,0-.5.12-.71.31-.6.56-1.03,1.35-1.38,2.13-.69,1.59-1.16,3.3-1.42,5.01-.03.2-.19.33-.37.33-.24-.03-.39-.16-.39-.38Z"/>
        <path class="cls-1" d="M173.35,47.32c-.32-.07-.7-.19-.94-.53-.15-.2-.21-.44-.21-.67,0-.16.03-.31.08-.45.09-.36.23-.63.39-.93.06-.1.14-.2.2-.3-.28,0-.48-.1-.48-.39,0-.22.17-.39.39-.39h.02s.04,0,.07,0c.18.04.33.04.53.08.17-.2.34-.38.53-.55,1.02-.86,2.31-1.35,3.64-1.39.34,0,.67,0,1.04.2.11.08.27.21.27.41,0,.1-.04.2-.08.26-.13.18-.27.28-.42.37-1.42.82-3.13,1.29-4.75,1.39-.41.49-.89,1.26-.89,1.78,0,.58.8.78,1.62.82l.48.02c.46,0,.92-.04,1.39-.1,1.24-.14,2.47-.42,3.68-.72,2.43-.61,4.82-1.41,7.16-2.33.03,0,.06-.02.09-.02.14,0,.26.12.26.26,0,.12-.07.2-.19.25-2.42.75-4.83,1.44-7.27,2.07-1.73.42-3.75.89-5.61.94-.32,0-.65-.02-.98-.09ZM178.15,42.72c.15-.1.26-.19.3-.31,0-.02-.03,0-.08-.06-.15-.06-.37-.09-.59-.09h-.22c-1.18.14-2.34.66-3.23,1.43l-.1.09c1.35-.02,2.84-.42,3.92-1.07Z"/>
        <path class="cls-1" d="M187.78,47.96c-.73-1.98-1.05-4.3-1.05-6.49,0-1.4.11-3.03.54-4.41.13-.36.27-.72.5-1.06.22-.33.62-.73,1.18-.73.26,0,.44.12.44.39,0,.21-.18.39-.39.39h-.09c-.37,0-.78.65-1,1.24-.51,1.37-.67,3.16-.67,4.67,0,1.97.25,4.1.9,5.86.5,1.37,1.34,2.72,2.64,2.99.18.03.36.05.53.05,1.18,0,2.29-.81,3.05-1.74.91-1.11,1.57-2.4,2.14-3.72.55-1.29,1-2.63,1.38-3.97l-.02-1.16c0-.58.02-1.17.05-1.75.03-.57.09-1.14.22-1.72.04-.15.08-.3.16-.47.05-.09.08-.19.27-.31.06-.04.15-.07.25-.07.23,0,.34.14.39.2.25.34.3.58.37.83.04.09.03.13.03.22,0,.06,0,.12-.04.18-.34,1.38-.71,2.75-1.16,4.09v.4c.07,2.2.26,4.45,1.03,6.51.49,1.27,1.32,2.47,2.5,2.47.82,0,1.62-.59,2.23-1.22,1.51-1.58,2.61-3.57,3.44-5.6.08-.15.19-.26.37-.26.2,0,.38.18.38.4,0,.09,0,.12-.05.2-1.17,1.95-2.3,3.89-3.9,5.52-.71.65-1.48,1.31-2.48,1.31-.22,0-.43-.03-.65-.1-1.2-.41-1.79-1.56-2.21-2.58-.7-1.85-.98-3.81-1.11-5.76-.81,2.3-1.81,4.75-3.33,6.55-.88,1.04-1.98,1.9-3.34,1.9-1.81,0-2.89-1.65-3.51-3.27ZM198.84,37.18l-.03-.11c-.14.51-.2,1.07-.26,1.62.1-.5.2-1.01.29-1.51Z"/>
        <path class="cls-1" d="M208.22,47.32c-.32-.07-.7-.19-.94-.53-.15-.2-.21-.44-.21-.67,0-.16.03-.31.08-.45.09-.36.23-.63.39-.93.06-.1.14-.2.2-.3-.28,0-.48-.1-.48-.39,0-.22.17-.39.39-.39h.02s.04,0,.07,0c.18.04.33.04.53.08.17-.2.34-.38.53-.55,1.02-.86,2.31-1.35,3.64-1.39.34,0,.67,0,1.04.2.11.08.27.21.27.41,0,.1-.04.2-.08.26-.13.18-.27.28-.42.37-1.42.82-3.13,1.29-4.75,1.39-.41.49-.89,1.26-.89,1.78,0,.58.8.78,1.62.82l.48.02c.46,0,.92-.04,1.39-.1,1.24-.14,2.47-.42,3.68-.72,2.43-.61,4.82-1.41,7.16-2.33.03,0,.06-.02.09-.02.14,0,.26.12.26.26,0,.12-.07.2-.19.25-2.42.75-4.83,1.44-7.27,2.07-1.73.42-3.75.89-5.61.94-.32,0-.65-.02-.98-.09ZM213.03,42.72c.15-.1.26-.19.3-.31,0-.02-.03,0-.08-.06-.15-.06-.37-.09-.59-.09h-.22c-1.18.14-2.34.66-3.23,1.43l-.1.09c1.35-.02,2.84-.42,3.92-1.07Z"/>
        <path class="cls-1" d="M258.37,52.51c-.22,0-.37-.17-.37-.39.04-2.38.05-4.75.05-7.13-1.94-.07-3.88-.11-5.83-.11-2.46,0-4.65.07-7.12.25,0,1.47-.11,2.93-.46,4.38-.26,1.08-.87,2.47-2.09,2.7-.21.03-.43.04-.63.04-.98,0-1.91-.28-2.82-.57-1.09-.4-2.16-.9-3.06-1.65-.48-.39-1.05-1.03-1.05-1.72,0-.54.38-1.03.78-1.31.96-.72,2.11-1.02,3.22-1.31,1.92-.49,3.8-.66,5.69-.83-.03-.75-.06-1.5-.11-2.24-.19-2.28-.53-4.55-.96-6.79v-.09c0-.23.14-.37.38-.39.18,0,.35.14.38.31v.02c.48,3.26.7,5.97.73,9.13,3.94-.37,8.16-.43,12.11-.43h.83v-3.54c0-.85,0-1.71.03-2.57,0-.54.03-1.17.1-1.76.02-.18,0-.29.17-.63.1-.1.21-.15.33-.15.1,0,.15.03.2.06.07.03.14.13.14.13.17.33.16.47.21.68.15.8.16.92.27,1.74v.04c0,.21-.15.38-.38.39-.15,0-.29-.09-.36-.22-.04,1.45-.05,2.89-.06,4.34,0,.49,0,1,0,1.49,1.46,0,2.93.02,4.39.04.21,0,.38.17.38.38,0,.24-.16.4-.41.4-1.45-.08-2.91-.14-4.36-.2,0,2.26,0,4.75.06,7.13,0,.2-.17.37-.38.37h-.02ZM242.5,51.92c1.05-.19,1.58-1.39,1.85-2.49.26-1.21.35-2.44.35-3.69v-.57c-1.95.15-3.71.31-5.63.78-1.1.27-2.25.57-3.13,1.24-.39.26-.71.68-.71,1.12,0,.58.5,1.17.96,1.54.88.71,1.93,1.2,2.99,1.57.87.28,1.79.54,2.69.54.2,0,.42,0,.62-.04Z"/>
        <path class="cls-1" d="M264.68,46.02c-.46-.03-.95-.13-1.39-.45-.38-.29-.6-.76-.6-1.27,0-.09,0-.17.02-.26.03-.2.2-.33.4-.33.23,0,.38.17.38.4,0,.17-.08.2-.08.42s.08.45.25.61c.37.38,1.12.51,1.74.51.65,0,1.32-.23,1.57-.88-.62-.13-1.24-.3-1.82-.57-.2-.11-.41-.22-.59-.38-.1-.1-.26-.23-.26-.44,0-.43.59-.48.9-.48.68,0,1.41.17,1.82.72.17.22.26.5.26.79v.12c.74.13,1.51.17,2.28.17,2.03,0,3.96-.34,6.02-.92.04-.02.08-.02.12-.02.23,0,.35.14.38.39,0,.19-.12.34-.32.38-1.97.36-3.6.54-5.51.55-1.1,0-2.03-.09-3.04-.27-.03.06-.03.13-.06.18-.41.81-1.35,1.04-2.13,1.04h-.34ZM267.04,44.37c0-.22-.07-.44-.2-.63-.31-.48-.97-.63-1.58-.63-.26,0-.49.04-.67.15-.04.03-.06.06-.06.09,0,.2.38.45.72.61.56.25,1.17.4,1.78.51v-.11Z"/>
        <path class="cls-1" d="M275.52,49.18v-.65c0-1,.02-2,.04-3,.07-2.3.16-4.96.65-7.23.17-.83.41-1.84,1.05-2.64.25-.27.6-.54,1.07-.58.22,0,.37.15.38.39,0,.22-.15.39-.38.39-.77.03-1.3,1.45-1.58,2.56-.48,2.07-.61,4.46-.61,6.69,0,.92.03,1.84.08,2.76.54-.83,1.14-1.62,1.78-2.37-.03-.05-.04-.11-.04-.16,0-.09.04-.19.11-.25.03-.03,0-.03.05-.03.34-.26.67-.53,1.02-.78,1.13-1.17,2.27-2.14,3.67-3.03.06-.03.09-.09.24-.09.11,0,.2.1.2.17,0,.13-.03.14-.03.14-.09.16-.16.2-.27.31-.76.71-.36.34-1.18,1.07l-2.95,2.6c.65,1.42,2.03,2.37,3.67,2.37.52,0,1.05-.09,1.54-.23.54-.14,1.04-.4,1.54-.63.48-.3.99-.52,1.42-.88.43-.35.89-.66,1.29-1.05l1.21-1.2c.08-.09.18-.13.28-.13.21,0,.4.18.4.39,0,.14-.05.22-.17.32-.94.67-1.83,1.38-2.81,1.97-.47.32-1,.56-1.49.84-.53.22-1.05.48-1.61.6-.54.18-1.13.28-1.73.28-1.65,0-3.12-.84-4.14-2.3-.82,1.05-1.53,2.23-1.96,3.44-.06.15-.2.26-.37.26-.2,0-.37-.16-.38-.36Z"/>
        <path class="cls-1" d="M290,47.32c-.32-.07-.7-.19-.94-.53-.15-.2-.21-.44-.21-.67,0-.16.03-.31.08-.45.09-.36.23-.63.39-.93.06-.1.14-.2.2-.3-.28,0-.48-.1-.48-.39,0-.22.17-.39.39-.39h.02s.04,0,.07,0c.18.04.33.04.53.08.17-.2.34-.38.53-.55,1.02-.86,2.31-1.35,3.64-1.39.34,0,.67,0,1.04.2.11.08.27.21.27.41,0,.1-.04.2-.08.26-.13.18-.27.28-.42.37-1.42.82-3.13,1.29-4.75,1.39-.41.49-.89,1.26-.89,1.78,0,.58.8.78,1.62.82l.48.02c.46,0,.92-.04,1.39-.1,1.24-.14,2.47-.42,3.68-.72,2.43-.61,4.82-1.41,7.16-2.33.03,0,.06-.02.09-.02.14,0,.26.12.26.26,0,.12-.07.2-.19.25-2.42.75-4.83,1.44-7.27,2.07-1.73.42-3.75.89-5.61.94-.32,0-.65-.02-.98-.09ZM294.81,42.72c.15-.1.26-.19.3-.31,0-.02-.03,0-.08-.06-.15-.06-.37-.09-.59-.09h-.22c-1.18.14-2.34.66-3.23,1.43l-.1.09c1.35-.02,2.84-.42,3.92-1.07Z"/>
        <path class="cls-1" d="M303.6,45.96c-.21-.37-.26-.73-.26-1.1.03-.75.07-1.01.28-1.79.04-.18.2-.29.38-.29.2,0,.38.16.38.39-.02.1,0,.05-.03.16h0c-.24.53-.47,1.25-.47,1.83,0,.2.03.39.12.54.1.24.36.33.65.33.48,0,1.08-.24,1.54-.45.8-.38,1.56-.87,2.3-1.38.75-.5,1.38-1.13,2.21-1.61.19-.1.41-.19.68-.19.74.03.83.84.94,1.34.03.22.06.37.15.53.29.54,1.1.68,1.85.68,1.89-.04,3.73-.62,5.41-1.18.04-.03.09-.03.14-.03.22,0,.39.18.39.39,0,.16-.1.31-.26.37-1.74.61-3.5,1.09-5.38,1.16-.47,0-.95-.03-1.44-.16-.48-.12-1-.4-1.27-.92-.29-.47-.17-1.03-.31-1.35-.06-.25-.17-.34-.36-.34-.12,0-.26.03-.39.08-1.6.7-2.9,2.08-4.54,2.88-.41.2-.82.41-1.29.52-.14.04-.3.07-.47.07-.34,0-.78-.12-.96-.48Z"/>
        <path class="cls-1" d="M320.09,47.32c-.32-.07-.7-.19-.94-.53-.15-.2-.21-.44-.21-.67,0-.16.03-.31.08-.45.09-.36.23-.63.39-.93.06-.1.14-.2.2-.3-.28,0-.48-.1-.48-.39,0-.22.17-.39.39-.39h.02s.04,0,.07,0c.18.04.33.04.53.08.17-.2.34-.38.53-.55,1.02-.86,2.31-1.35,3.64-1.39.34,0,.67,0,1.04.2.11.08.27.21.27.41,0,.1-.04.2-.08.26-.13.18-.27.28-.42.37-1.42.82-3.13,1.29-4.75,1.39-.41.49-.89,1.26-.89,1.78,0,.58.8.78,1.62.82l.48.02c.46,0,.92-.04,1.39-.1,1.24-.14,2.47-.42,3.68-.72,2.43-.61,4.82-1.41,7.16-2.33.03,0,.06-.02.09-.02.14,0,.26.12.26.26,0,.12-.07.2-.19.25-2.42.75-4.83,1.44-7.27,2.07-1.73.42-3.75.89-5.61.94-.32,0-.65-.02-.98-.09ZM324.9,42.72c.15-.1.26-.19.3-.31,0-.02-.03,0-.08-.06-.15-.06-.37-.09-.59-.09h-.22c-1.18.14-2.34.66-3.23,1.43l-.1.09c1.35-.02,2.84-.42,3.92-1.07Z"/>
        <path class="cls-1" d="M334.56,50.31c-1.19,0-2.69-.43-3.12-1.7-.06-.17-.09-.35-.09-.52,0-1.16.97-1.91,1.96-2.48.32-.16.65-.31.99-.44-.4-.43-.83-.78-1.26-1.26-.43-.47-.9-1-.96-1.86.07-.88,1.05-1.24,1.69-1.33.54-.09,1.06-.11,1.6-.11h.34c.21,0,.37.18.37.39s-.17.4-.4.4c-.28-.05-.55-.06-.82-.06-.6,0-1.28.07-1.74.3-.21.14-.28.27-.3.43.03.38.43.88.82,1.28.47.51.91.92,1.43,1.52,1.65-.56,3.39-.81,5.12-1.05-.12-.29-.24-.6-.24-.99.03-.36.1-.64.4-.86.38-.26.72-.28,1.08-.28h.18c.21,0,.39.18.39.4,0,.21-.19.38-.4.38-.03,0-.08,0-.11,0h0c-.08-.03-.18-.04-.27-.04-.32,0-.54.08-.54.33,0,.3.25.71.49,1.14.14.25.26.49.39.75,1.04-.44,2.4-.61,3.64-.65.13,0,.23.1.24.24,0,.12-.1.22-.22.23,0,0-.03,0-.04,0-.37-.03-.73-.06-1.11-.06-.83,0-1.67.12-2.42.43.34.69.61,1.44.63,2.24,0,.33-.05.7-.34.98-.24.2-.49.28-.76.28-.83,0-1.39-.75-1.39-1.55,0-.76.48-1.37,1.09-1.78l-.27-.45h-.9c-1.5,0-3.01.14-4.44.54.7.82,1.38,1.69,1.75,2.78.06.24.12.49.12.77,0,.09,0,.18-.02.27-.03.38-.29.71-.56.94-.61.41-1.28.47-1.91.47h-.09ZM336.25,49.45c.23-.19.32-.45.32-.74,0-.21-.04-.43-.13-.65-.43-1-1.17-1.89-1.97-2.71-.36.14-.71.27-1.05.44-.28.13-.51.32-.77.48-.56.43-1.05,1.12-1.05,1.78,0,.7.55,1.37,1.3,1.62.45.18.94.25,1.43.25.77-.02,1.41-.07,1.92-.47ZM341.61,47.73c.09-.11.14-.27.14-.46,0-.66-.43-1.47-.77-2.1,0-.02,0,0-.02-.02-.52.34-.93.91-.93,1.55,0,.57.37,1.25,1,1.25.23,0,.48-.09.58-.22Z"/>
      </g>
    </g>
  </g>
  <g id="Layer_1" data-name="Layer 1">
    <g>
      <path class="cls-2" d="M50.87,6.24C26.24,6.24,7.32,25.17,7.32,49.72s21.75,42.92,46.38,42.92,40.31-14.83,40.31-39.46S75.43,6.24,50.87,6.24ZM54.73,87.7c-21.71-2.4-38.79-16.77-39.71-38.47,0-22.13,16.45-39.18,39.04-39.46,23.1-.14,38.26,19.51,38.42,43.41,0,22.13-15.62,34.52-37.75,34.52Z"/>
      <path class="cls-4" d="M50.1,6.54C26.64,6.54,7.65,25.53,7.65,48.91s18.99,42.45,42.45,42.45,42.37-18.99,42.37-42.45S73.48,6.54,50.1,6.54ZM53.23,85.85c-21.07,0-38.42-16.25-38.42-37.32S32.15,9.64,53.23,9.52s38.13,17.05,38.13,38.13-17.05,38.2-38.13,38.2Z"/>
      <path class="cls-5" d="M36.92,125.29l.91-95.94s10.29,16.86,29.47,17.34c17.43.43,29.39-17.41,29.39-17.41l.99,96.01h-2.81c-7.19-6.72-16.81-10.87-27.52-10.87s-20.41,4.14-27.6,10.87h-2.81Z"/>
      <path class="cls-3" d="M36.92,125.29l1.45-94.88s10.7,16.3,28.97,16.76c16.6.41,28.89-16.76,28.89-16.76l1.31,94.88h-2.68c-6.85-6.4-17.09-11.12-27.29-11.12s-21.11,4.71-27.97,11.12h-2.68Z"/>
      <polygon class="cls-6" points="71.74 71.4 64.56 74 70.39 63.89 71.74 71.4"/>
      <path class="cls-7" d="M72.53,72.54c6.32-2.08,12.79-3.51,19.41-4.25-6.32,2.09-12.79,3.5-19.41,4.25h0Z"/>
      <path class="cls-7" d="M45.02,77.18c6.32-2.08,12.79-3.51,19.41-4.25-6.32,2.09-12.79,3.5-19.41,4.25h0Z"/>
      <path class="cls-7" d="M45.58,73.05c6.32-2.08,12.79-3.51,19.41-4.25-6.32,2.09-12.79,3.5-19.41,4.25h0Z"/>
      <path class="cls-7" d="M73.07,69.28c6.32-2.08,12.79-3.51,19.41-4.25-6.32,2.09-12.79,3.5-19.41,4.25h0Z"/>
      <path class="cls-7" d="M73.09,66.35c5.82-3.22,11.92-5.82,18.28-7.78-5.82,3.23-11.92,5.82-18.28,7.78h0Z"/>
      <path class="cls-7" d="M45.75,63.79c6.65.29,13.21,1.25,19.65,2.9-6.65-.28-13.21-1.26-19.65-2.9h0Z"/>
    </g>
  </g>
</svg>